<svg width="197" height="29" viewBox="0 0 197 29" fill="none" xmlns="http://www.w3.org/2000/svg">
<path d="M30.566 1.324V28H24.068V12.002L18.102 28H12.858L6.854 11.964V28H0.356V1.324H8.032L15.518 19.792L22.928 1.324H30.566ZM47.8548 28.266C45.3468 28.266 43.0415 27.6833 40.9388 26.518C38.8615 25.3527 37.2021 23.7313 35.9608 21.654C34.7448 19.5513 34.1368 17.1953 34.1368 14.586C34.1368 11.9767 34.7448 9.63333 35.9608 7.556C37.2021 5.47867 38.8615 3.85733 40.9388 2.692C43.0415 1.52667 45.3468 0.944 47.8548 0.944C50.3628 0.944 52.6555 1.52667 54.7328 2.692C56.8355 3.85733 58.4821 5.47867 59.6728 7.556C60.8888 9.63333 61.4968 11.9767 61.4968 14.586C61.4968 17.1953 60.8888 19.5513 59.6728 21.654C58.4568 23.7313 56.8101 25.3527 54.7328 26.518C52.6555 27.6833 50.3628 28.266 47.8548 28.266ZM47.8548 22.338C49.9828 22.338 51.6801 21.6287 52.9468 20.21C54.2388 18.7913 54.8848 16.9167 54.8848 14.586C54.8848 12.23 54.2388 10.3553 52.9468 8.962C51.6801 7.54333 49.9828 6.834 47.8548 6.834C45.7015 6.834 43.9788 7.53067 42.6868 8.924C41.4201 10.3173 40.7868 12.2047 40.7868 14.586C40.7868 16.942 41.4201 18.8293 42.6868 20.248C43.9788 21.6413 45.7015 22.338 47.8548 22.338ZM90.1539 1.324L80.6919 28H72.5599L63.0979 1.324H70.0139L76.6259 21.464L83.2759 1.324H90.1539ZM99.3677 1.324V28H92.8697V1.324H99.3677ZM110.575 6.53V11.926H119.277V16.942H110.575V22.794H120.417V28H104.077V1.324H120.417V6.53H110.575Z" fill="#E52626"/>
<path d="M141.241 23.288H131.285L129.689 28H122.887L132.539 1.324H140.063L149.715 28H142.837L141.241 23.288ZM139.569 18.272L136.263 8.506L132.995 18.272H139.569ZM172.983 9.912C172.983 11.4573 172.628 12.876 171.919 14.168C171.21 15.4347 170.12 16.4607 168.651 17.246C167.182 18.0313 165.358 18.424 163.179 18.424H159.151V28H152.653V1.324H163.179C165.307 1.324 167.106 1.69133 168.575 2.426C170.044 3.16066 171.146 4.174 171.881 5.466C172.616 6.758 172.983 8.24 172.983 9.912ZM162.685 13.256C163.926 13.256 164.851 12.9647 165.459 12.382C166.067 11.7993 166.371 10.976 166.371 9.912C166.371 8.848 166.067 8.02467 165.459 7.442C164.851 6.85933 163.926 6.568 162.685 6.568H159.151V13.256H162.685ZM196.696 9.912C196.696 11.4573 196.341 12.876 195.632 14.168C194.922 15.4347 193.833 16.4607 192.364 17.246C190.894 18.0313 189.07 18.424 186.892 18.424H182.864V28H176.366V1.324H186.892C189.02 1.324 190.818 1.69133 192.288 2.426C193.757 3.16066 194.859 4.174 195.594 5.466C196.328 6.758 196.696 8.24 196.696 9.912ZM186.398 13.256C187.639 13.256 188.564 12.9647 189.172 12.382C189.78 11.7993 190.084 10.976 190.084 9.912C190.084 8.848 189.78 8.02467 189.172 7.442C188.564 6.85933 187.639 6.568 186.398 6.568H182.864V13.256H186.398Z" fill="#347BEC"/>
</svg>
